<mxfile host="65bd71144e">
    <diagram id="02SapOzhCbqgvy_b65oz" name="Page-1">
        <mxGraphModel dx="1790" dy="779" grid="1" gridSize="10" guides="1" tooltips="1" connect="1" arrows="1" fold="1" page="1" pageScale="1" pageWidth="850" pageHeight="1100" math="0" shadow="0">
            <root>
                <mxCell id="0"/>
                <mxCell id="1" parent="0"/>
                <mxCell id="227" value="Media" style="whiteSpace=wrap;html=1;align=center;fillColor=#dae8fc;strokeColor=#6c8ebf;" parent="1" vertex="1">
                    <mxGeometry x="-160" y="40" width="80" height="40" as="geometry"/>
                </mxCell>
                <mxCell id="264" value="1" style="edgeStyle=orthogonalEdgeStyle;shape=connector;rounded=1;jumpStyle=arc;jumpSize=13;html=1;strokeColor=default;align=center;verticalAlign=middle;fontFamily=Helvetica;fontSize=12;fontColor=default;labelBackgroundColor=default;endArrow=none;endFill=0;" parent="1" source="261" target="262" edge="1">
                    <mxGeometry relative="1" as="geometry"/>
                </mxCell>
                <mxCell id="261" value="Cinema" style="whiteSpace=wrap;html=1;align=center;fillColor=#dae8fc;strokeColor=#6c8ebf;" parent="1" vertex="1">
                    <mxGeometry x="200" y="120" width="80" height="40" as="geometry"/>
                </mxCell>
                <mxCell id="265" value="n" style="edgeStyle=orthogonalEdgeStyle;shape=connector;rounded=1;jumpStyle=arc;jumpSize=13;html=1;strokeColor=default;align=center;verticalAlign=middle;fontFamily=Helvetica;fontSize=12;fontColor=default;labelBackgroundColor=default;endArrow=none;endFill=0;" parent="1" source="262" target="263" edge="1">
                    <mxGeometry relative="1" as="geometry"/>
                </mxCell>
                <mxCell id="262" value="" style="shape=rhombus;perimeter=rhombusPerimeter;whiteSpace=wrap;html=1;align=center;strokeColor=#d6b656;verticalAlign=middle;fontFamily=Helvetica;fontSize=12;fillColor=#fff2cc;" parent="1" vertex="1">
                    <mxGeometry x="200" y="40" width="80" height="40" as="geometry"/>
                </mxCell>
                <mxCell id="282" value="1" style="edgeStyle=orthogonalEdgeStyle;shape=connector;rounded=1;jumpStyle=arc;jumpSize=13;html=1;strokeColor=default;align=center;verticalAlign=middle;fontFamily=Helvetica;fontSize=12;fontColor=default;labelBackgroundColor=default;endArrow=none;endFill=0;" parent="1" source="263" target="280" edge="1">
                    <mxGeometry relative="1" as="geometry"/>
                </mxCell>
                <mxCell id="286" value="1" style="edgeStyle=orthogonalEdgeStyle;shape=connector;rounded=1;jumpStyle=arc;jumpSize=13;html=1;strokeColor=default;align=center;verticalAlign=middle;fontFamily=Helvetica;fontSize=12;fontColor=default;labelBackgroundColor=default;endArrow=none;endFill=0;" parent="1" source="263" target="267" edge="1">
                    <mxGeometry relative="1" as="geometry"/>
                </mxCell>
                <mxCell id="263" value="Room" style="whiteSpace=wrap;html=1;align=center;fillColor=#dae8fc;strokeColor=#6c8ebf;" parent="1" vertex="1">
                    <mxGeometry x="80" y="40" width="80" height="40" as="geometry"/>
                </mxCell>
                <mxCell id="273" value="1" style="edgeStyle=orthogonalEdgeStyle;shape=connector;rounded=1;jumpStyle=arc;jumpSize=13;html=1;strokeColor=default;align=center;verticalAlign=middle;fontFamily=Helvetica;fontSize=12;fontColor=default;labelBackgroundColor=default;endArrow=none;endFill=0;" parent="1" source="266" target="272" edge="1">
                    <mxGeometry relative="1" as="geometry"/>
                </mxCell>
                <mxCell id="285" value="n" style="edgeStyle=orthogonalEdgeStyle;shape=connector;rounded=1;jumpStyle=arc;jumpSize=13;html=1;strokeColor=default;align=center;verticalAlign=middle;fontFamily=Helvetica;fontSize=12;fontColor=default;labelBackgroundColor=default;endArrow=none;endFill=0;" parent="1" source="266" target="267" edge="1">
                    <mxGeometry relative="1" as="geometry"/>
                </mxCell>
                <mxCell id="266" value="ShowTime" style="whiteSpace=wrap;html=1;align=center;fillColor=#dae8fc;strokeColor=#6c8ebf;" parent="1" vertex="1">
                    <mxGeometry x="-40" y="120" width="80" height="40" as="geometry"/>
                </mxCell>
                <mxCell id="267" value="" style="shape=rhombus;perimeter=rhombusPerimeter;whiteSpace=wrap;html=1;align=center;strokeColor=#d6b656;verticalAlign=middle;fontFamily=Helvetica;fontSize=12;fillColor=#fff2cc;" parent="1" vertex="1">
                    <mxGeometry x="-40" y="40" width="80" height="40" as="geometry"/>
                </mxCell>
                <mxCell id="272" value="" style="shape=rhombus;perimeter=rhombusPerimeter;whiteSpace=wrap;html=1;align=center;strokeColor=#d6b656;verticalAlign=middle;fontFamily=Helvetica;fontSize=12;fillColor=#fff2cc;" parent="1" vertex="1">
                    <mxGeometry x="-40" y="200" width="80" height="40" as="geometry"/>
                </mxCell>
                <mxCell id="277" value="1" style="edgeStyle=orthogonalEdgeStyle;shape=connector;rounded=1;jumpStyle=arc;jumpSize=13;html=1;strokeColor=default;align=center;verticalAlign=middle;fontFamily=Helvetica;fontSize=12;fontColor=default;labelBackgroundColor=default;endArrow=none;endFill=0;" parent="1" source="275" target="227" edge="1">
                    <mxGeometry relative="1" as="geometry">
                        <mxPoint x="-120" y="200" as="targetPoint"/>
                    </mxGeometry>
                </mxCell>
                <mxCell id="278" value="n" style="edgeStyle=orthogonalEdgeStyle;shape=connector;rounded=1;jumpStyle=arc;jumpSize=13;html=1;strokeColor=default;align=center;verticalAlign=middle;fontFamily=Helvetica;fontSize=12;fontColor=default;labelBackgroundColor=default;endArrow=none;endFill=0;" parent="1" source="275" target="266" edge="1">
                    <mxGeometry relative="1" as="geometry"/>
                </mxCell>
                <mxCell id="275" value="" style="shape=rhombus;perimeter=rhombusPerimeter;whiteSpace=wrap;html=1;align=center;strokeColor=#d6b656;verticalAlign=middle;fontFamily=Helvetica;fontSize=12;fillColor=#fff2cc;" parent="1" vertex="1">
                    <mxGeometry x="-160" y="120" width="80" height="40" as="geometry"/>
                </mxCell>
                <mxCell id="283" value="n" style="edgeStyle=orthogonalEdgeStyle;shape=connector;rounded=1;jumpStyle=arc;jumpSize=13;html=1;strokeColor=default;align=center;verticalAlign=middle;fontFamily=Helvetica;fontSize=12;fontColor=default;labelBackgroundColor=default;endArrow=none;endFill=0;" parent="1" source="279" target="280" edge="1">
                    <mxGeometry relative="1" as="geometry"/>
                </mxCell>
                <mxCell id="342" value="1" style="edgeStyle=orthogonalEdgeStyle;shape=connector;rounded=1;jumpStyle=arc;jumpSize=13;html=1;strokeColor=default;align=center;verticalAlign=middle;fontFamily=Helvetica;fontSize=12;fontColor=default;labelBackgroundColor=default;endArrow=none;endFill=0;" parent="1" source="279" target="339" edge="1">
                    <mxGeometry relative="1" as="geometry">
                        <Array as="points">
                            <mxPoint x="120" y="260"/>
                            <mxPoint x="120" y="260"/>
                        </Array>
                    </mxGeometry>
                </mxCell>
                <mxCell id="279" value="Seat" style="whiteSpace=wrap;html=1;align=center;fillColor=#dae8fc;strokeColor=#6c8ebf;" parent="1" vertex="1">
                    <mxGeometry x="80" y="200" width="80" height="40" as="geometry"/>
                </mxCell>
                <mxCell id="280" value="" style="shape=rhombus;perimeter=rhombusPerimeter;whiteSpace=wrap;html=1;align=center;strokeColor=#d6b656;verticalAlign=middle;fontFamily=Helvetica;fontSize=12;fillColor=#fff2cc;" parent="1" vertex="1">
                    <mxGeometry x="80" y="120" width="80" height="40" as="geometry"/>
                </mxCell>
                <mxCell id="298" value="User" style="whiteSpace=wrap;html=1;align=center;fillColor=#dae8fc;strokeColor=#6c8ebf;" parent="1" vertex="1">
                    <mxGeometry x="-160" y="640" width="80" height="40" as="geometry"/>
                </mxCell>
                <mxCell id="304" value="n" style="edgeStyle=orthogonalEdgeStyle;shape=connector;rounded=1;jumpStyle=arc;jumpSize=13;html=1;strokeColor=default;align=center;verticalAlign=middle;fontFamily=Helvetica;fontSize=12;fontColor=default;labelBackgroundColor=default;endArrow=none;endFill=0;" parent="1" source="299" target="302" edge="1">
                    <mxGeometry relative="1" as="geometry"/>
                </mxCell>
                <mxCell id="299" value="" style="shape=rhombus;perimeter=rhombusPerimeter;whiteSpace=wrap;html=1;align=center;strokeColor=#d6b656;verticalAlign=middle;fontFamily=Helvetica;fontSize=12;fillColor=#fff2cc;" parent="1" vertex="1">
                    <mxGeometry x="-40" y="520" width="80" height="40" as="geometry"/>
                </mxCell>
                <mxCell id="303" value="1" style="edgeStyle=orthogonalEdgeStyle;shape=connector;rounded=1;jumpStyle=arc;jumpSize=13;html=1;strokeColor=default;align=center;verticalAlign=middle;fontFamily=Helvetica;fontSize=12;fontColor=default;labelBackgroundColor=default;endArrow=none;endFill=0;" parent="1" source="300" target="299" edge="1">
                    <mxGeometry relative="1" as="geometry"/>
                </mxCell>
                <mxCell id="300" value="Customer" style="whiteSpace=wrap;html=1;align=center;fillColor=#dae8fc;strokeColor=#6c8ebf;" parent="1" vertex="1">
                    <mxGeometry x="-160" y="520" width="80" height="40" as="geometry"/>
                </mxCell>
                <mxCell id="350" style="edgeStyle=orthogonalEdgeStyle;shape=connector;rounded=1;jumpStyle=arc;jumpSize=13;html=1;strokeColor=default;align=center;verticalAlign=middle;fontFamily=Helvetica;fontSize=12;fontColor=default;labelBackgroundColor=default;endArrow=none;endFill=0;" parent="1" source="301" target="349" edge="1">
                    <mxGeometry relative="1" as="geometry"/>
                </mxCell>
                <mxCell id="301" value="Admin" style="whiteSpace=wrap;html=1;align=center;fillColor=#dae8fc;strokeColor=#6c8ebf;" parent="1" vertex="1">
                    <mxGeometry x="-40" y="640" width="80" height="40" as="geometry"/>
                </mxCell>
                <mxCell id="307" value="1" style="edgeStyle=orthogonalEdgeStyle;shape=connector;rounded=1;jumpStyle=arc;jumpSize=13;html=1;strokeColor=default;align=center;verticalAlign=middle;fontFamily=Helvetica;fontSize=12;fontColor=default;labelBackgroundColor=default;endArrow=none;endFill=0;" parent="1" source="302" target="305" edge="1">
                    <mxGeometry relative="1" as="geometry"/>
                </mxCell>
                <mxCell id="302" value="Order" style="whiteSpace=wrap;html=1;align=center;fillColor=#dae8fc;strokeColor=#6c8ebf;" parent="1" vertex="1">
                    <mxGeometry x="80" y="520" width="80" height="40" as="geometry"/>
                </mxCell>
                <mxCell id="308" value="n" style="edgeStyle=orthogonalEdgeStyle;shape=connector;rounded=1;jumpStyle=arc;jumpSize=13;html=1;strokeColor=default;align=center;verticalAlign=middle;fontFamily=Helvetica;fontSize=12;fontColor=default;labelBackgroundColor=default;endArrow=none;endFill=0;" parent="1" source="305" target="306" edge="1">
                    <mxGeometry relative="1" as="geometry">
                        <mxPoint x="-20.000000000000227" y="600" as="targetPoint"/>
                    </mxGeometry>
                </mxCell>
                <mxCell id="305" value="" style="shape=rhombus;perimeter=rhombusPerimeter;whiteSpace=wrap;html=1;align=center;strokeColor=#d6b656;verticalAlign=middle;fontFamily=Helvetica;fontSize=12;fillColor=#fff2cc;" parent="1" vertex="1">
                    <mxGeometry x="80" y="440" width="80" height="40" as="geometry"/>
                </mxCell>
                <mxCell id="346" value="n" style="edgeStyle=orthogonalEdgeStyle;shape=connector;rounded=1;jumpStyle=arc;jumpSize=13;html=1;strokeColor=default;align=center;verticalAlign=middle;fontFamily=Helvetica;fontSize=12;fontColor=default;labelBackgroundColor=default;endArrow=none;endFill=0;" parent="1" source="306" target="344" edge="1">
                    <mxGeometry relative="1" as="geometry">
                        <Array as="points">
                            <mxPoint x="120" y="430"/>
                            <mxPoint x="-120" y="430"/>
                        </Array>
                    </mxGeometry>
                </mxCell>
                <mxCell id="357" style="edgeStyle=orthogonalEdgeStyle;shape=connector;rounded=1;jumpStyle=arc;jumpSize=13;html=1;strokeColor=default;align=center;verticalAlign=middle;fontFamily=Helvetica;fontSize=12;fontColor=default;labelBackgroundColor=default;endArrow=none;endFill=0;" edge="1" parent="1" source="306" target="272">
                    <mxGeometry relative="1" as="geometry"/>
                </mxCell>
                <mxCell id="306" value="OrderDetail" style="whiteSpace=wrap;html=1;align=center;fillColor=#dae8fc;strokeColor=#6c8ebf;" parent="1" vertex="1">
                    <mxGeometry x="80" y="360" width="80" height="40" as="geometry"/>
                </mxCell>
                <mxCell id="315" value="u" style="edgeStyle=orthogonalEdgeStyle;shape=connector;rounded=1;jumpStyle=arc;jumpSize=13;html=1;strokeColor=default;align=center;verticalAlign=middle;fontFamily=Helvetica;fontSize=12;fontColor=default;labelBackgroundColor=default;endArrow=none;endFill=0;" parent="1" source="312" target="298" edge="1">
                    <mxGeometry relative="1" as="geometry"/>
                </mxCell>
                <mxCell id="317" style="edgeStyle=orthogonalEdgeStyle;shape=connector;rounded=1;jumpStyle=arc;jumpSize=13;html=1;strokeColor=default;align=center;verticalAlign=middle;fontFamily=Helvetica;fontSize=12;fontColor=default;labelBackgroundColor=default;endArrow=none;endFill=0;" parent="1" source="312" target="300" edge="1">
                    <mxGeometry relative="1" as="geometry"/>
                </mxCell>
                <mxCell id="337" style="edgeStyle=orthogonalEdgeStyle;shape=connector;rounded=1;jumpStyle=arc;jumpSize=13;html=1;strokeColor=default;align=center;verticalAlign=middle;fontFamily=Helvetica;fontSize=12;fontColor=default;labelBackgroundColor=default;endArrow=none;endFill=0;" parent="1" source="312" target="301" edge="1">
                    <mxGeometry relative="1" as="geometry"/>
                </mxCell>
                <mxCell id="312" value="" style="ellipse;whiteSpace=wrap;html=1;" parent="1" vertex="1">
                    <mxGeometry x="-130" y="590" width="20" height="20" as="geometry"/>
                </mxCell>
                <mxCell id="321" value="n" style="edgeStyle=orthogonalEdgeStyle;shape=connector;rounded=1;jumpStyle=arc;jumpSize=13;html=1;strokeColor=default;align=center;verticalAlign=middle;fontFamily=Helvetica;fontSize=12;fontColor=default;labelBackgroundColor=default;endArrow=none;endFill=0;" parent="1" source="319" target="320" edge="1">
                    <mxGeometry relative="1" as="geometry"/>
                </mxCell>
                <mxCell id="322" value="1" style="edgeStyle=orthogonalEdgeStyle;shape=connector;rounded=1;jumpStyle=arc;jumpSize=13;html=1;strokeColor=default;align=center;verticalAlign=middle;fontFamily=Helvetica;fontSize=12;fontColor=default;labelBackgroundColor=default;endArrow=none;endFill=0;" parent="1" source="319" target="302" edge="1">
                    <mxGeometry relative="1" as="geometry"/>
                </mxCell>
                <mxCell id="319" value="" style="shape=rhombus;perimeter=rhombusPerimeter;whiteSpace=wrap;html=1;align=center;strokeColor=#d6b656;verticalAlign=middle;fontFamily=Helvetica;fontSize=12;fillColor=#fff2cc;" parent="1" vertex="1">
                    <mxGeometry x="200" y="520" width="80" height="40" as="geometry"/>
                </mxCell>
                <mxCell id="320" value="Payment" style="whiteSpace=wrap;html=1;align=center;fillColor=#dae8fc;strokeColor=#6c8ebf;" parent="1" vertex="1">
                    <mxGeometry x="200" y="440" width="80" height="40" as="geometry"/>
                </mxCell>
                <mxCell id="358" style="edgeStyle=orthogonalEdgeStyle;shape=connector;rounded=1;jumpStyle=arc;jumpSize=13;html=1;strokeColor=default;align=center;verticalAlign=middle;fontFamily=Helvetica;fontSize=12;fontColor=default;labelBackgroundColor=default;endArrow=none;endFill=0;" edge="1" parent="1" source="339" target="306">
                    <mxGeometry relative="1" as="geometry"/>
                </mxCell>
                <mxCell id="339" value="" style="shape=rhombus;perimeter=rhombusPerimeter;whiteSpace=wrap;html=1;align=center;strokeColor=#d6b656;verticalAlign=middle;fontFamily=Helvetica;fontSize=12;fillColor=#fff2cc;" parent="1" vertex="1">
                    <mxGeometry x="80" y="280" width="80" height="40" as="geometry"/>
                </mxCell>
                <mxCell id="343" value="Product" style="whiteSpace=wrap;html=1;align=center;fillColor=#dae8fc;strokeColor=#6c8ebf;" parent="1" vertex="1">
                    <mxGeometry x="-160" y="280" width="80" height="40" as="geometry"/>
                </mxCell>
                <mxCell id="347" value="1" style="edgeStyle=orthogonalEdgeStyle;shape=connector;rounded=1;jumpStyle=arc;jumpSize=13;html=1;strokeColor=default;align=center;verticalAlign=middle;fontFamily=Helvetica;fontSize=12;fontColor=default;labelBackgroundColor=default;endArrow=none;endFill=0;" parent="1" source="344" target="343" edge="1">
                    <mxGeometry relative="1" as="geometry"/>
                </mxCell>
                <mxCell id="344" value="" style="shape=rhombus;perimeter=rhombusPerimeter;whiteSpace=wrap;html=1;align=center;strokeColor=#d6b656;verticalAlign=middle;fontFamily=Helvetica;fontSize=12;fillColor=#fff2cc;" parent="1" vertex="1">
                    <mxGeometry x="-160" y="360" width="80" height="40" as="geometry"/>
                </mxCell>
                <mxCell id="348" value="Email" style="whiteSpace=wrap;html=1;align=center;fillColor=#dae8fc;strokeColor=#6c8ebf;" parent="1" vertex="1">
                    <mxGeometry x="200" y="640" width="80" height="40" as="geometry"/>
                </mxCell>
                <mxCell id="351" style="edgeStyle=orthogonalEdgeStyle;shape=connector;rounded=1;jumpStyle=arc;jumpSize=13;html=1;strokeColor=default;align=center;verticalAlign=middle;fontFamily=Helvetica;fontSize=12;fontColor=default;labelBackgroundColor=default;endArrow=none;endFill=0;" parent="1" source="349" target="348" edge="1">
                    <mxGeometry relative="1" as="geometry"/>
                </mxCell>
                <mxCell id="349" value="" style="shape=rhombus;perimeter=rhombusPerimeter;whiteSpace=wrap;html=1;align=center;strokeColor=#d6b656;verticalAlign=middle;fontFamily=Helvetica;fontSize=12;fillColor=#fff2cc;" parent="1" vertex="1">
                    <mxGeometry x="80" y="640" width="80" height="40" as="geometry"/>
                </mxCell>
                <mxCell id="352" value="Otp" style="whiteSpace=wrap;html=1;align=center;fillColor=#dae8fc;strokeColor=#6c8ebf;" parent="1" vertex="1">
                    <mxGeometry x="200" y="720" width="80" height="40" as="geometry"/>
                </mxCell>
            </root>
        </mxGraphModel>
    </diagram>
    <diagram id="LNc4okclckovZmSJuyNc" name="Page-2">
        <mxGraphModel dx="421" dy="714" grid="1" gridSize="10" guides="1" tooltips="1" connect="1" arrows="1" fold="1" page="1" pageScale="1" pageWidth="850" pageHeight="1100" math="0" shadow="0">
            <root>
                <mxCell id="0"/>
                <mxCell id="1" parent="0"/>
                <mxCell id="n8DC0IPg1cwjK6bnQKsE-36" style="edgeStyle=orthogonalEdgeStyle;shape=connector;rounded=1;jumpStyle=arc;jumpSize=13;html=1;strokeColor=default;align=center;verticalAlign=middle;fontFamily=Helvetica;fontSize=11;fontColor=default;labelBackgroundColor=default;elbow=vertical;endArrow=none;endFill=0;" edge="1" parent="1" source="n8DC0IPg1cwjK6bnQKsE-17">
                    <mxGeometry relative="1" as="geometry">
                        <mxPoint x="360" y="490.0000000000002" as="targetPoint"/>
                    </mxGeometry>
                </mxCell>
                <mxCell id="n8DC0IPg1cwjK6bnQKsE-17" value="Media" style="whiteSpace=wrap;html=1;align=center;" vertex="1" parent="1">
                    <mxGeometry x="240" y="560" width="80" height="40" as="geometry"/>
                </mxCell>
                <mxCell id="n8DC0IPg1cwjK6bnQKsE-18" value="Movie" style="whiteSpace=wrap;html=1;align=center;" vertex="1" parent="1">
                    <mxGeometry x="220" y="340" width="80" height="40" as="geometry"/>
                </mxCell>
                <mxCell id="n8DC0IPg1cwjK6bnQKsE-20" value="Poster" style="whiteSpace=wrap;html=1;align=center;" vertex="1" parent="1">
                    <mxGeometry x="240" y="720" width="80" height="40" as="geometry"/>
                </mxCell>
                <mxCell id="n8DC0IPg1cwjK6bnQKsE-26" value="n" style="edgeStyle=orthogonalEdgeStyle;shape=connector;rounded=1;jumpStyle=arc;jumpSize=13;html=1;strokeColor=default;align=center;verticalAlign=middle;fontFamily=Helvetica;fontSize=11;fontColor=default;labelBackgroundColor=default;elbow=vertical;endArrow=none;endFill=0;" edge="1" parent="1" source="n8DC0IPg1cwjK6bnQKsE-21" target="n8DC0IPg1cwjK6bnQKsE-20">
                    <mxGeometry relative="1" as="geometry"/>
                </mxCell>
                <mxCell id="n8DC0IPg1cwjK6bnQKsE-31" value="1" style="edgeStyle=orthogonalEdgeStyle;shape=link;rounded=1;jumpStyle=arc;jumpSize=13;html=1;strokeColor=default;align=center;verticalAlign=middle;fontFamily=Helvetica;fontSize=11;fontColor=default;labelBackgroundColor=default;elbow=vertical;endArrow=none;endFill=0;" edge="1" parent="1" source="n8DC0IPg1cwjK6bnQKsE-21" target="n8DC0IPg1cwjK6bnQKsE-17">
                    <mxGeometry relative="1" as="geometry"/>
                </mxCell>
                <mxCell id="n8DC0IPg1cwjK6bnQKsE-21" value="" style="shape=rhombus;perimeter=rhombusPerimeter;whiteSpace=wrap;html=1;align=center;" vertex="1" parent="1">
                    <mxGeometry x="240" y="640" width="80" height="40" as="geometry"/>
                </mxCell>
                <mxCell id="n8DC0IPg1cwjK6bnQKsE-34" style="edgeStyle=orthogonalEdgeStyle;shape=connector;rounded=1;jumpStyle=arc;jumpSize=13;html=1;strokeColor=default;align=center;verticalAlign=middle;fontFamily=Helvetica;fontSize=11;fontColor=default;labelBackgroundColor=default;elbow=vertical;endArrow=none;endFill=0;" edge="1" parent="1" source="n8DC0IPg1cwjK6bnQKsE-32" target="n8DC0IPg1cwjK6bnQKsE-18">
                    <mxGeometry relative="1" as="geometry"/>
                </mxCell>
                <mxCell id="n8DC0IPg1cwjK6bnQKsE-32" value="D" style="ellipse;whiteSpace=wrap;html=1;aspect=fixed;fontFamily=Helvetica;fontSize=11;fontColor=default;labelBackgroundColor=default;" vertex="1" parent="1">
                    <mxGeometry x="350" y="480" width="20" height="20" as="geometry"/>
                </mxCell>
            </root>
        </mxGraphModel>
    </diagram>
</mxfile>